<svg xmlns="http://www.w3.org/2000/svg" xmlns:xlink="http://www.w3.org/1999/xlink" version="1.1" width="1000" height="1000" viewBox="0 0 1000 1000" xml:space="preserve">
<desc>Created with Fabric.js 3.5.0</desc>
<defs>
</defs>
<rect x="0" y="0" width="100%" height="100%" fill="#ffffff"/>
<g transform="matrix(0.5002 0 0 0.5002 170.5045 170.5045)" id="99136">
<g style="" vector-effect="non-scaling-stroke">
		<g transform="matrix(1 0 0 1 -64.7 0.05)" id="XMLID_5_">
<path style="stroke: none; stroke-width: 1; stroke-dasharray: none; stroke-linecap: butt; stroke-dashoffset: 0; stroke-linejoin: miter; stroke-miterlimit: 4; is-custom-font: none; font-file-url: none; fill: rgb(209,225,135); fill-rule: nonzero; opacity: 1;" transform=" translate(-185.3, -250.05)" d="M 222.3 164.1 c 0 -3.1 -2.5 -5.6 -5.6 -5.6 h 0 c -3.1 0 -5.6 2.5 -5.6 5.6 v 10.4 c -0.5 -0.1 -1 -0.1 -1.5 -0.1 H 161 c -7 0 -12.7 5.7 -12.7 12.7 v 141.8 c 0 7 5.7 12.7 12.7 12.7 h 48.6 c 7 0 12.7 -5.7 12.7 -12.7 V 187 c 0 -1 -0.1 -2 -0.3 -2.9 c 0.2 -0.6 0.3 -1.2 0.3 -1.9 V 164.1 z M 215.6 255.5 c 0 9.1 -7.3 16.4 -16.4 16.4 h -27.6 c -9.1 0 -16.4 -7.3 -16.4 -16.4 v -46.2 c 0 -9.1 7.3 -16.4 16.4 -16.4 h 27.6 c 9.1 0 16.4 7.3 16.4 16.4 V 255.5 z" stroke-linecap="round"/>
</g>
		<g transform="matrix(1 0 0 1 -64.7 -17.6)" id="XMLID_6_">
<path style="stroke: none; stroke-width: 1; stroke-dasharray: none; stroke-linecap: butt; stroke-dashoffset: 0; stroke-linejoin: miter; stroke-miterlimit: 4; is-custom-font: none; font-file-url: none; fill: rgb(255,255,255); fill-rule: evenodd; opacity: 1;" transform=" translate(-185.3, -232.4)" d="M 171.3 192.9 h 28 c 8.9 0 16.2 7.3 16.2 16.2 v 46.6 c 0 8.9 -7.3 16.2 -16.2 16.2 h -28 c -8.9 0 -16.2 -7.3 -16.2 -16.2 v -46.6 C 155.1 200.2 162.4 192.9 171.3 192.9 z" stroke-linecap="round"/>
</g>
		<g transform="matrix(1 0 0 1 159.1 -16.5506)" id="XMLID_9_">
<path style="stroke: none; stroke-width: 1; stroke-dasharray: none; stroke-linecap: butt; stroke-dashoffset: 0; stroke-linejoin: miter; stroke-miterlimit: 4; is-custom-font: none; font-file-url: none; fill: rgb(139,197,63); fill-rule: evenodd; opacity: 1;" transform=" translate(-409.1, -233.4495)" d="M 385.9 272.8 h 16.6 v -41.4 h 13.8 v 41.4 h 16.1 v -59.1 c -0.3 -12 -9.6 -19.5 -22.6 -19.6 c -14.9 -0.1 -23.4 6.9 -24 18.9 V 272.8 z M 402.5 209.5 c 0.5 -4.4 2 -6.2 6.8 -6.7 c 4.9 0.1 6.7 3 7 7.3 v 12 h -13.8 V 209.5 z" stroke-linecap="round"/>
</g>
		<g transform="matrix(1 0 0 1 -89.65 -15.4)" id="XMLID_10_">
<path style="stroke: none; stroke-width: 1; stroke-dasharray: none; stroke-linecap: butt; stroke-dashoffset: 0; stroke-linejoin: miter; stroke-miterlimit: 4; is-custom-font: none; font-file-url: none; fill: rgb(129,33,28); fill-rule: evenodd; opacity: 1;" transform=" translate(-160.35, -234.6)" d="M 168 224.5 c 2.8 6.5 6.5 9.5 11.1 9.6 c -7.1 5.3 -14.8 8.6 -22.9 10.6 c -5.1 -0.3 -9.9 -1.6 -14.6 -2.9 C 153.5 239.5 162.4 233.8 168 224.5 z" stroke-linecap="round"/>
</g>
		<g transform="matrix(1 0 0 1 -55.65 -23.1836)" id="XMLID_11_">
<path style="stroke: none; stroke-width: 1; stroke-dasharray: none; stroke-linecap: butt; stroke-dashoffset: 0; stroke-linejoin: miter; stroke-miterlimit: 4; is-custom-font: none; font-file-url: none; fill: rgb(235,32,38); fill-rule: evenodd; opacity: 1;" transform=" translate(-194.35, -226.8164)" d="M 199.1 207.7 l 33.4 16.9 c -17 22.4 -45.7 23 -76.3 20.1 C 176.7 239.7 190.8 227.2 199.1 207.7 z" stroke-linecap="round"/>
</g>
		<g transform="matrix(1 0 0 1 -147.25 -18.25)" id="XMLID_12_">
<path style="stroke: none; stroke-width: 1; stroke-dasharray: none; stroke-linecap: butt; stroke-dashoffset: 0; stroke-linejoin: miter; stroke-miterlimit: 4; is-custom-font: none; font-file-url: none; fill: rgb(139,197,63); fill-rule: nonzero; opacity: 1;" transform=" translate(-102.75, -231.75)" d="M 136.4 201.3 c -5.4 -9.8 -15.3 -10.1 -28.1 -4 c -7.7 -6.9 -15 -3.9 -24.7 0.3 l -0.2 -5 h -16 v 78.3 h 16.4 v -70.3 c 0.7 0 1.3 -0.1 1.9 -0.1 c 4.9 0 8.9 4 8.9 8.9 v 61.5 h 16.5 v -70.3 c 0.3 0 0.7 0 1 0 c 2.6 -0.1 5.1 0.9 6.9 2.7 c 1.9 1.8 2.9 4.3 2.9 6.8 c 0 8.4 0 25.7 0 60.8 h 16.2 v -62 c 0 -2.3 -0.5 -4.5 -1.3 -6.5 C 136.7 201.9 136.6 201.6 136.4 201.3 z" stroke-linecap="round"/>
</g>
		<g transform="matrix(1 0 0 1 7.1047 -16.6)" id="XMLID_15_">
<path style="stroke: none; stroke-width: 1; stroke-dasharray: none; stroke-linecap: butt; stroke-dashoffset: 0; stroke-linejoin: miter; stroke-miterlimit: 4; is-custom-font: none; font-file-url: none; fill: rgb(139,197,63); fill-rule: nonzero; opacity: 1;" transform=" translate(-257.1047, -233.4)" d="M 278.3 205.3 c -2.7 -5.7 -8.5 -9.4 -14.8 -9.4 h -29.8 v 75 h 16.1 V 237 h 10.8 c 10 0 18.4 -7.4 19.7 -17.3 c 0.1 -0.6 0.1 -1.2 0.2 -1.8 C 280.6 213 279.9 208.7 278.3 205.3 z M 250.2 229.4 v -25.8 c 7.6 -1.1 13.4 1 13.8 13 C 263.8 227.3 258.1 230 250.2 229.4 z" stroke-linecap="round"/>
</g>
		<g transform="matrix(1 0 0 1 60.4 -15.85)" id="XMLID_16_">
<path style="stroke: none; stroke-width: 1; stroke-dasharray: none; stroke-linecap: butt; stroke-dashoffset: 0; stroke-linejoin: miter; stroke-miterlimit: 4; is-custom-font: none; font-file-url: none; fill: rgb(139,197,63); fill-rule: nonzero; opacity: 1;" transform=" translate(-310.4, -234.15)" d="M 316 265.6 c -0.1 0 -0.5 0 -0.6 -0.1 c -4.8 -0.6 -7.7 -3.4 -8.7 -8.7 c -0.1 -0.7 -0.2 -1.4 -0.2 -2.1 l 0.1 -23.9 h 16.8 l 3.1 0 l 0 0 h 0.5 v -10.2 h -20.4 v -10.1 c 0 -3 1.9 -5.8 4.7 -6.8 c 0.1 0 0.2 -0.1 0.3 -0.1 c 0.8 -0.3 1.6 -0.4 2.4 -0.4 l 14.4 0.1 l 0.1 -8.4 L 309 195 c -12 0.4 -18.5 5.3 -18.8 15.2 v 43.6 c 0 3.2 0.7 6.5 2 9.4 c 0.6 1.3 1.2 2.5 1.7 3.3 c 3.1 4.9 7.4 6.6 12.4 6.8 l 1.9 0.1 h 22.4 v -7.8 H 316 z" stroke-linecap="round"/>
</g>
		<g transform="matrix(1 0 0 1 106.592 -14.9244)" id="XMLID_17_">
<path style="stroke: none; stroke-width: 1; stroke-dasharray: none; stroke-linecap: butt; stroke-dashoffset: 0; stroke-linejoin: miter; stroke-miterlimit: 4; is-custom-font: none; font-file-url: none; fill: rgb(139,197,63); fill-rule: evenodd; opacity: 1;" transform=" translate(-356.592, -235.0756)" d="M 367.8 273 c -2.9 1.5 -7.1 2.5 -11.8 2.5 c -5.7 0 -10.7 -1.4 -13.4 -3.6 c -2.5 -1.7 -4.4 -4.2 -5.9 -7.4 c -1.1 -2.5 -2 -5.5 -2.5 -8.9 h 15.3 c 0.2 0.9 0.4 1.8 0.6 2.6 c 0.3 1.1 0.8 2 1.3 2.8 c 1.1 1.5 2.5 2.5 4.5 2.8 c 0.9 0.1 1.7 0 2.6 -0.2 c 1.7 -0.5 3.1 -1.2 4.1 -2.2 c 2.4 -2.4 2.9 -6.1 1.1 -10.5 c -0.8 -2.1 -2.2 -3.9 -3.9 -5.4 c -10.8 -9 -22.8 -17.7 -24.1 -29.4 c -0.8 -9.9 2.4 -15.2 7.4 -18 c 6.8 -3.8 14.9 -4.5 22.2 -1.9 c 5.4 1.9 9.1 6 10.8 12.7 c 0.3 1.3 0.6 2.7 0.8 4.2 h -15.1 c -0.7 -5.2 -4 -8 -7.7 -7.6 c -1.5 0.2 -2.9 0.9 -3.8 2.1 c -0.9 1.2 -1.3 2.7 -1 4.2 c 1.3 7.8 14.6 17.7 21 22.9 c 0.6 0.5 3 2.5 3.6 3.2 C 382.1 247.3 380.6 266.4 367.8 273 z" stroke-linecap="round"/>
</g>
</g>
</g>
</svg>